<svg fill="none" viewBox="0 0 1193 1963" xmlns="http://www.w3.org/2000/svg"><g clip-path="url(#k)"><mask id="f" x="-1602" y="0" width="2795" height="1963" style="mask-type:luminance" maskUnits="userSpaceOnUse"><path d="M1192.21 0H-1602V1962.81H1192.21V0Z" fill="#fff"/></mask><g mask="url(#f)"><mask id="e" x="-1752" y="-228" width="3094" height="2419" style="mask-type:luminance" maskUnits="userSpaceOnUse"><path d="m1000.6-227.7-2751.8 485.21 340.83 1933 2751.8-485.21-340.84-1933z" fill="#fff"/></mask><g mask="url(#e)"><g filter="url(#j)" opacity=".4"><path d="m256.7 581.07c172.08 86.421 338.93 170.21 360.99 321.71 34.678 239.45-239.84 584.05-540.56 757.41-216.46 124.75-436.06 161.26-615.37 139.15-402.67-49.79-601.93-343.7-616.39-750.58-9.41-267.44 83.54-460.57 217.53-587.22 143.96-135.51 334.69-192.23 491.63-186.16 105.95 3.964 302.53 43.461 445.37 155.93 73.301 57.589 165.78 104.04 256.8 149.75zm-643.55 771.29c184.68-32.56 307.98-208.66 275.42-393.34-32.563-184.67-208.66-307.98-393.34-275.42-184.67 32.563-307.98 208.67-275.42 393.34 32.563 184.68 208.67 307.98 393.34 275.42z" clip-rule="evenodd" fill="url(#d)" fill-rule="evenodd"/></g><g filter="url(#i)"><path d="m-329.32 1682.3c342.15-60.33 659.71-430.4 637.84-621.37-9.316-81.423-104.21-161.18-219.14-257.78-39.34-33.069-81.036-68.112-122.46-105.87-34.921-31.844-67.871-68.782-100.54-105.42-80.868-90.663-160.09-179.47-263.49-184.61-339.48-16.886-669.76 413.54-609.43 755.68 60.331 342.16 335.08 579.7 677.22 519.37zm-46.037-261.09c215.03-37.92 358.61-242.96 320.69-458-37.916-215.03-242.96-358.61-458-320.69-215.03 37.915-358.61 242.97-320.69 458 37.916 215.03 242.97 358.61 458 320.69z" clip-rule="evenodd" fill="url(#c)" fill-rule="evenodd"/></g><g filter="url(#h)"><path d="m-329.32 1682.3c342.15-60.33 659.71-430.4 637.84-621.37-9.316-81.423-104.21-161.18-219.14-257.78-39.34-33.069-81.036-68.112-122.46-105.87-34.921-31.844-67.871-68.782-100.54-105.42-80.868-90.663-160.09-179.47-263.49-184.61-339.48-16.886-669.76 413.54-609.43 755.68 60.331 342.16 335.08 579.7 677.22 519.37zm-46.037-261.09c215.03-37.92 358.61-242.96 320.69-458-37.916-215.03-242.96-358.61-458-320.69-215.03 37.915-358.61 242.97-320.69 458 37.916 215.03 242.97 358.61 458 320.69z" clip-rule="evenodd" fill="url(#b)" fill-rule="evenodd"/></g><g filter="url(#g)"><path d="m508.94 885.06c63.118 357.95-455.03 736.72-813 799.84-357.96 63.12-699.31-175.9-762.43-533.86-63.11-357.96 175.9-699.32 533.86-762.43 177.81-31.352 388.42 156.18 595.29 242.17 209.62 87.131 414.52 74.117 446.29 254.28z" fill="url(#a)" fill-opacity=".97"/></g></g></g></g><defs><filter id="j" x="-1343.3" y="86.948" width="2152" height="1906.5" color-interpolation-filters="sRGB" filterUnits="userSpaceOnUse"><feFlood flood-opacity="0" result="BackgroundImageFix"/><feBlend in="SourceGraphic" in2="BackgroundImageFix" result="shape"/><feGaussianBlur result="effect1_foregroundBlur_1527_561" stdDeviation="94"/></filter><filter id="i" x="-1062.7" y="357.73" width="1421.3" height="1382.9" color-interpolation-filters="sRGB" filterUnits="userSpaceOnUse"><feFlood flood-opacity="0" result="BackgroundImageFix"/><feColorMatrix in="SourceAlpha" result="hardAlpha" values="0 0 0 0 0 0 0 0 0 0 0 0 0 0 0 0 0 0 127 0"/><feOffset dy="5"/><feGaussianBlur stdDeviation="9.5"/><feComposite in2="hardAlpha" operator="out"/><feColorMatrix values="0 0 0 0 1 0 0 0 0 1 0 0 0 0 1 0 0 0 1 0"/><feBlend in2="BackgroundImageFix" result="effect1_dropShadow_1527_561"/><feBlend in="SourceGraphic" in2="effect1_dropShadow_1527_561" result="shape"/><feGaussianBlur result="effect2_foregroundBlur_1527_561" stdDeviation="24.5"/></filter><filter id="h" x="-1057.7" y="360.73" width="1411.3" height="1372.9" color-interpolation-filters="sRGB" filterUnits="userSpaceOnUse"><feFlood flood-opacity="0" result="BackgroundImageFix"/><feColorMatrix in="SourceAlpha" result="hardAlpha" values="0 0 0 0 0 0 0 0 0 0 0 0 0 0 0 0 0 0 127 0"/><feOffset dy="-2"/><feGaussianBlur stdDeviation="22"/><feComposite in2="hardAlpha" operator="out"/><feColorMatrix values="0 0 0 0 0.0195659 0 0 0 0 0.631952 0 0 0 0 0.670833 0 0 0 0.9 0"/><feBlend in2="BackgroundImageFix" result="effect1_dropShadow_1527_561"/><feBlend in="SourceGraphic" in2="effect1_dropShadow_1527_561" result="shape"/><feGaussianBlur result="effect2_foregroundBlur_1527_561" stdDeviation="7.5"/></filter><filter id="g" x="-1216.6" y="245.11" width="1870.8" height="1589.9" color-interpolation-filters="sRGB" filterUnits="userSpaceOnUse"><feFlood flood-opacity="0" result="BackgroundImageFix"/><feBlend in="SourceGraphic" in2="BackgroundImageFix" result="shape"/><feGaussianBlur result="effect1_foregroundBlur_1527_561" stdDeviation="70"/></filter><linearGradient id="d" x1="392.75" x2="-1155.6" y1="1385.8" y2="758.08" gradientUnits="userSpaceOnUse"><stop stop-color="#2442AB" offset="0"/><stop stop-color="#33A8D4" offset="1"/></linearGradient><radialGradient id="c" cx="0" cy="0" r="1" gradientTransform="translate(-361.17 1039.7) rotate(80.042) scale(638.38 656.15)" gradientUnits="userSpaceOnUse"><stop stop-color="#D59F42" offset="0"/><stop stop-color="#FEA568" offset=".28125"/><stop stop-color="#E6AB4F" offset=".52083"/><stop stop-color="#7E9485" offset=".76562"/><stop stop-color="#D59F42" offset="1"/></radialGradient><radialGradient id="b" cx="0" cy="0" r="1" gradientTransform="translate(-361.17 1039.7) rotate(80.042) scale(638.38 656.15)" gradientUnits="userSpaceOnUse"><stop stop-color="#D59F42" offset="0"/><stop stop-color="#FDB07B" offset=".28125"/><stop stop-color="#F3D3A1" offset=".52083"/><stop stop-color="#7E9485" offset=".76562"/><stop stop-color="#D59F42" offset="1"/></radialGradient><linearGradient id="a" x1="563.32" x2="-1064.5" y1="888.45" y2="1162.5" gradientUnits="userSpaceOnUse"><stop stop-color="#02226C" offset="0"/><stop stop-color="#164787" offset=".16591"/><stop stop-color="#347068" offset=".30769"/><stop stop-color="#FDE14D" offset=".50238"/></linearGradient><clipPath id="k"><rect width="1193" height="1963" fill="#fff"/></clipPath></defs></svg>
